<svg width="80" height="26" viewBox="0 0 80 26" fill="none" xmlns="http://www.w3.org/2000/svg">
<g clip-path="url(#clip0_636_3454)">
<path d="M79.3493 1.70508V19.047H76.8203V1.70508H79.3493Z" fill="#272425"/>
<path d="M73.4483 6.7631V19.047H70.9192V6.7631H73.4483ZM73.93 3.07794C73.93 3.99321 73.1833 4.83622 72.1958 4.83622C71.2564 4.83622 70.4375 4.06547 70.4375 3.07794C70.4375 2.1145 71.2564 1.34375 72.1958 1.34375C73.1833 1.34375 73.93 2.18676 73.93 3.07794Z" fill="#272425"/>
<path fill-rule="evenodd" clip-rule="evenodd" d="M60.9379 6.45117C57.3667 6.45117 54.4922 9.38173 54.4922 12.9711C54.4922 16.5603 57.3667 19.4909 60.9379 19.4909C62.5789 19.4909 64.0727 18.8722 65.2082 17.8552L65.7634 19.0463H67.6799V6.74749H65.7634L65.1713 8.05406C64.0405 7.05657 62.5612 6.45117 60.9379 6.45117ZM61.0862 8.89536C58.8831 8.89536 57.0764 10.7086 57.0764 12.9711C57.0764 15.2334 58.8831 17.0467 61.0862 17.0467C63.2893 17.0467 65.0959 15.2334 65.0959 12.9711C65.0959 10.7086 63.2893 8.89536 61.0862 8.89536Z" fill="#272425"/>
<path d="M38.6811 8.98018C36.9709 8.98018 35.6462 10.2808 35.6462 12.015V19.0481H33.1172V6.76429H35.0559L35.6462 7.89633C36.5133 6.95698 37.7658 6.45117 39.1146 6.45117C40.7043 6.45117 42.029 7.14967 42.9202 8.35397C43.9318 7.17375 45.4492 6.45117 47.1834 6.45117C50.2905 6.45117 52.3619 8.73932 52.3619 12.015V19.0481H49.8329V12.1114C49.8329 10.2327 48.7249 8.98018 47.0389 8.98018C45.3288 8.98018 44.0041 10.2808 44.0041 12.015V19.0481H41.475V12.1114C41.475 10.2327 40.3671 8.98018 38.6811 8.98018Z" fill="#272425"/>
<path d="M16.7847 12.9032C16.7847 15.0435 15.0435 16.7847 12.9032 16.7847C10.7629 16.7847 9.02176 15.0435 9.02176 12.9032C9.02176 10.7629 10.7629 9.02176 12.9032 9.02176C15.0435 9.02176 16.7847 10.7629 16.7847 12.9032ZM12.9032 0C5.78871 0 0 5.78871 0 12.9032C0 20.0177 5.78871 25.8065 12.9032 25.8065C15.5097 25.8065 18.0234 25.0306 20.1718 23.5621L20.2089 23.5363L18.4702 21.5154L18.4411 21.5347C16.7871 22.5984 14.8717 23.1613 12.9032 23.1613C7.24678 23.1613 2.64516 18.5597 2.64516 12.9032C2.64516 7.24678 7.24678 2.64516 12.9032 2.64516C18.5597 2.64516 23.1613 7.24678 23.1613 12.9032C23.1613 13.6363 23.0798 14.3782 22.9194 15.108C22.5952 16.4395 21.6629 16.8476 20.9629 16.7935C20.2588 16.7363 19.4355 16.2347 19.4298 15.0072V14.0717V12.9032C19.4298 9.304 16.5025 6.37661 12.9032 6.37661C9.304 6.37661 6.37661 9.304 6.37661 12.9032C6.37661 16.5025 9.304 19.4298 12.9032 19.4298C14.6516 19.4298 16.2911 18.746 17.5274 17.5032C18.2459 18.6218 19.4177 19.3234 20.7508 19.4298C20.8653 19.4395 20.9823 19.4444 21.0984 19.4444C22.0363 19.4444 22.967 19.1307 23.7169 18.5605C24.4903 17.9734 25.0678 17.1242 25.3871 16.104C25.4379 15.9395 25.5314 15.5621 25.5323 15.5597L25.5347 15.546C25.7226 14.7274 25.8065 13.9113 25.8065 12.9032C25.8065 5.78871 20.0177 0 12.9032 0Z" fill="#0077FF"/>
</g>
<defs>
<clipPath id="clip0_636_3454">
<rect width="80" height="25.8065" fill="white"/>
</clipPath>
</defs>
</svg>
