<svg width="60" height="26" viewBox="0 0 60 26" fill="none" xmlns="http://www.w3.org/2000/svg">
<g clip-path="url(#clip0_2001_653)">
<path d="M38.9075 18.7797C37.8016 19.0668 36.366 19.2051 35.1218 19.2051C31.9315 19.2051 29.8047 17.5036 29.8047 14.3878C29.8047 11.4421 31.772 9.52799 34.6645 9.52799C35.3025 9.52799 35.9938 9.61306 36.4085 9.82574V5.52954H38.9075V18.7691V18.7797ZM36.4085 12.027C35.9258 11.8175 35.4032 11.7159 34.8772 11.7293C33.3565 11.7293 32.3356 12.6651 32.3356 14.3134C32.3356 16.0786 33.4416 17.0782 35.2068 17.0782C35.5259 17.0782 35.9938 17.0463 36.4085 16.9719V12.0164V12.027ZM59.357 18.7797C58.2511 19.0668 56.8261 19.2051 55.5713 19.2051C52.381 19.2051 50.2542 17.5036 50.2542 14.3878C50.2542 11.4421 52.2321 9.52799 55.114 9.52799C55.7627 9.52799 56.4433 9.61306 56.8686 9.82574V5.52954H59.357V18.7691V18.7797ZM56.8686 12.027C56.3827 11.816 55.8563 11.7143 55.3267 11.7293C53.806 11.7293 52.7957 12.6651 52.7957 14.3134C52.7957 16.0786 53.8911 17.0782 55.667 17.0782C55.9754 17.0782 56.4539 17.0463 56.8686 16.9719V12.0164V12.027ZM42.8315 12.0057C43.2356 11.8356 43.8205 11.7718 44.3203 11.7718C45.8516 11.7718 46.9151 12.6651 46.9151 14.2708C46.9151 16.1531 45.7453 17.0038 44.1714 17.0357V19.2051H44.2991C47.5212 19.2051 49.446 17.3973 49.446 14.1858C49.446 11.2507 47.3936 9.52799 44.3629 9.52799C42.8209 9.52799 41.3109 9.88955 40.3112 10.3043V22.7462H42.8209V12.0057H42.8315Z" fill="#3C3C3B"/>
<path d="M16.2694 11.3891C16.2138 11.4189 16.1516 11.4345 16.0886 11.4345C16.0255 11.4345 15.9634 11.4189 15.9078 11.3891L15.3229 11.0275C15.2711 10.9954 15.2274 10.9518 15.1953 10.8999V10.8893C15.1578 10.8321 15.1358 10.7661 15.1315 10.6979L15.1102 10.0066C15.1113 9.94259 15.1284 9.87981 15.1599 9.82408C15.1915 9.76834 15.2366 9.72142 15.291 9.68762L22.4159 5.54029L12.4198 0.0956028C12.2939 0.0344558 12.1557 0.00268555 12.0157 0.00268555C11.8757 0.00268555 11.7375 0.0344558 11.6116 0.0956028L1.61548 5.52966L12.8132 12.0484C12.8677 12.0822 12.9127 12.1291 12.9443 12.1849C12.9759 12.2406 12.993 12.3034 12.994 12.3674V21.8744C12.993 21.9384 12.9759 22.0012 12.9443 22.0569C12.9127 22.1127 12.8677 22.1596 12.8132 22.1934L12.2071 22.5124C12.152 22.5445 12.09 22.5628 12.0263 22.5656H12.0157C11.9493 22.5678 11.8835 22.5532 11.8243 22.523L11.2181 22.1828C11.1617 22.1502 11.1146 22.1039 11.0811 22.0481C11.0476 21.9922 11.0289 21.9288 11.0267 21.8637V13.3989C11.0227 13.3645 11.0111 13.3313 10.9927 13.3019C10.9743 13.2725 10.9496 13.2475 10.9204 13.2288L1.0625 7.49698V18.7479C1.0625 18.9925 1.24328 19.3115 1.45596 19.4391L11.6222 25.4262C11.7442 25.4879 11.879 25.52 12.0157 25.52C12.1524 25.52 12.2872 25.4879 12.4092 25.4262L22.5754 19.4391C22.7881 19.3009 22.9689 18.9925 22.9689 18.7479V7.49698L16.2694 11.3891Z" fill="url(#paint0_linear_2001_653)"/>
</g>
<defs>
<linearGradient id="paint0_linear_2001_653" x1="1.16884" y1="21.6617" x2="12.2603" y2="12.3568" gradientUnits="userSpaceOnUse">
<stop stop-color="#BE0737"/>
<stop offset="0.04" stop-color="#C00736"/>
<stop offset="0.63" stop-color="#D8062C"/>
<stop offset="1" stop-color="#E10528"/>
</linearGradient>
<clipPath id="clip0_2001_653">
<rect width="59.5513" height="25.522" fill="white"/>
</clipPath>
</defs>
</svg>
