<svg width="102" height="13" viewBox="0 0 102 13" fill="none" xmlns="http://www.w3.org/2000/svg">
<g clip-path="url(#clip0_2001_618)">
<path d="M19.0461 12.3674H17.7644V10.8015H14.2141V12.3674H12.9324V9.60338H13.3553C13.492 9.3129 13.6031 8.96797 13.6886 8.5686C13.774 8.16013 13.8424 7.72897 13.8936 7.27511C13.9449 6.82121 13.9791 6.3583 13.9962 5.88629C14.0133 5.41429 14.0218 4.96494 14.0218 4.53832V3.95284H18.3668V9.60338H19.0461V12.3674ZM4.37062 2.6185H3.67848C3.03763 2.6185 2.55486 2.77282 2.23016 3.08144C1.90546 3.39006 1.74311 3.79854 1.74311 4.30687C1.74311 4.59731 1.77302 4.8515 1.83283 5.06936C1.89264 5.27812 1.97809 5.47328 2.08917 5.6548C2.2088 5.83636 2.35406 6.00882 2.52495 6.17223C2.70439 6.32651 2.91373 6.48992 3.15299 6.66239L3.93482 7.22062L1.67903 10.8015H0L2.02509 7.60185C1.73457 7.38399 1.47396 7.16163 1.24325 6.93468C1.02109 6.70778 0.833106 6.46723 0.679303 6.21308C0.525495 5.95888 0.405872 5.68659 0.320425 5.3961C0.243523 5.09656 0.205072 4.76527 0.205072 4.40215C0.205072 3.94831 0.277702 3.5353 0.422961 3.16314C0.576768 2.78189 0.798928 2.45965 1.08944 2.19642C1.37997 1.9241 1.73884 1.71533 2.16608 1.57009C2.60185 1.41578 3.10172 1.33862 3.66567 1.33862H5.92144V10.8015H4.37062V2.6185ZM20.9943 7.91503C21.0199 8.53226 21.1566 8.99066 21.4044 9.2902C21.6522 9.58974 22.0709 9.73956 22.6605 9.73956C23.0194 9.73956 23.3739 9.67598 23.7243 9.5489C24.0832 9.41277 24.378 9.263 24.6086 9.09959V10.3386C24.3865 10.502 24.1045 10.6427 23.7627 10.7607C23.4209 10.8787 23.0108 10.9377 22.5323 10.9377C21.5753 10.9377 20.8362 10.6473 20.315 10.0663C19.8023 9.48536 19.546 8.5958 19.546 7.39764C19.546 6.88024 19.5972 6.40369 19.6997 5.96798C19.8108 5.53227 19.9775 5.15559 20.1996 4.83786C20.4218 4.51108 20.6995 4.26148 21.0327 4.089C21.3745 3.90746 21.7718 3.81669 22.2247 3.81669C22.5921 3.81669 22.9253 3.87569 23.2244 3.9937C23.532 4.1117 23.7926 4.30232 24.0063 4.56556C24.2199 4.82881 24.3822 5.16919 24.4933 5.58675C24.6129 5.99522 24.6727 6.49897 24.6727 7.09809V7.91503H20.9943ZM12.1633 3.95284V10.8015H10.7663V7.90143H8.60021V10.8015H7.20316V3.95284H8.60021V6.70323H10.7663V3.95284H12.1633ZM27.2233 7.35679V10.8015H25.8263V3.95284H27.2233V7.26147L29.4791 3.95284H30.9403L28.7486 7.16618L31.2222 10.8015H29.5817L27.2233 7.35679ZM34.2086 10.9377C33.2003 10.9377 32.4527 10.6336 31.9656 10.0255C31.4871 9.41728 31.2479 8.53681 31.2479 7.38399C31.2479 6.8666 31.3077 6.39005 31.4273 5.95438C31.5555 5.50957 31.7392 5.1329 31.9784 4.82426C32.2262 4.50657 32.5296 4.26148 32.8885 4.089C33.2473 3.90746 33.666 3.81669 34.1445 3.81669C34.512 3.81669 34.8281 3.84846 35.093 3.912C35.3579 3.96646 35.5672 4.04362 35.721 4.14347V5.45058C35.5757 5.35071 35.375 5.25542 35.1186 5.16464C34.8623 5.07386 34.5931 5.02847 34.3111 5.02847C33.7899 5.02847 33.3883 5.22363 33.1063 5.61395C32.8329 5.99522 32.6962 6.57161 32.6962 7.34315C32.6962 8.0784 32.8201 8.65933 33.0679 9.08599C33.3157 9.51261 33.7258 9.72591 34.2983 9.72591C34.6059 9.72591 34.8708 9.68507 35.093 9.60338C35.3237 9.51261 35.533 9.39913 35.721 9.263V10.5156C35.5416 10.6518 35.328 10.7562 35.0802 10.8288C34.8409 10.9014 34.5504 10.9377 34.2086 10.9377ZM16.9697 5.15104H15.2522V5.43698C15.2522 5.73652 15.2437 6.07236 15.2266 6.44453C15.2095 6.8167 15.1796 7.19338 15.1369 7.57465C15.0942 7.95587 15.0344 8.3235 14.9574 8.67752C14.8891 9.03151 14.7994 9.34014 14.6883 9.60338H16.9697V5.15104ZM22.1991 5.01487C21.806 5.01487 21.5112 5.16919 21.3147 5.47783C21.1182 5.77737 21.0114 6.21758 20.9943 6.79856H23.25V6.62154C23.25 6.39459 23.233 6.18583 23.1988 5.99522C23.1646 5.79551 23.1048 5.62305 23.0194 5.47783C22.9424 5.33256 22.8356 5.21913 22.6989 5.1374C22.5708 5.05572 22.4041 5.01487 22.1991 5.01487Z" fill="black"/>
<path d="M53.0117 12.7499V9.50309H53.6135C53.8184 9.14086 53.9633 8.62011 54.0487 7.94083C54.1422 7.25254 54.2106 6.34691 54.2531 5.22389L54.3815 1.33862H59.6035V9.50309H60.4356V12.7499H58.9893V10.7801H54.458V12.7499H53.0117ZM55.7126 5.44123C55.6956 6.00274 55.6697 6.50084 55.6357 6.93558C55.6017 7.37027 55.5587 7.75064 55.5077 8.0767C55.4652 8.40272 55.4138 8.68347 55.3543 8.91897C55.2944 9.14536 55.2302 9.3401 55.1622 9.50309H58.0548V2.6156H55.8023L55.7126 5.44123Z" fill="black"/>
<path d="M63.9236 3.81104C64.3414 3.81104 64.7256 3.88802 65.0753 4.04198C65.4251 4.19594 65.7239 4.4269 65.9712 4.73482C66.2186 5.03368 66.4107 5.405 66.5471 5.84874C66.6925 6.28347 66.7647 6.78612 66.7647 7.35668C66.7647 7.92725 66.6925 8.4344 66.5471 8.87818C66.4107 9.32193 66.2186 9.6978 65.9712 10.0057C65.7239 10.3046 65.4251 10.531 65.0753 10.6849C64.7256 10.8389 64.3414 10.9159 63.9236 10.9159C63.5054 10.9159 63.1212 10.8389 62.7714 10.6849C62.4216 10.531 62.1229 10.3046 61.8755 10.0057C61.6282 9.6978 61.4318 9.32647 61.2869 8.89174C61.15 8.448 61.082 7.9408 61.082 7.37024C61.082 6.79968 61.15 6.29253 61.2869 5.84874C61.4318 5.405 61.6282 5.03368 61.8755 4.73482C62.1229 4.4269 62.4216 4.19594 62.7714 4.04198C63.1212 3.88802 63.5054 3.81104 63.9236 3.81104ZM63.9236 9.63893C64.3499 9.63893 64.6656 9.4578 64.8705 9.09553C65.0838 8.73326 65.1905 8.15364 65.1905 7.35668C65.1905 6.55968 65.0838 5.98461 64.8705 5.6314C64.6656 5.26913 64.3499 5.08799 63.9236 5.08799C63.4969 5.08799 63.1769 5.26913 62.9635 5.6314C62.7587 5.99367 62.6562 6.57328 62.6562 7.37024C62.6562 8.16724 62.7587 8.74686 62.9635 9.10913C63.1769 9.4623 63.4969 9.63893 63.9236 9.63893Z" fill="black"/>
<path d="M70.5517 10.9159C69.5279 10.9159 68.7684 10.6125 68.2733 10.0057C67.7786 9.39894 67.5312 8.52046 67.5312 7.37024C67.5312 6.85404 67.5908 6.37859 67.7102 5.94386C67.8381 5.50007 68.026 5.12424 68.2733 4.81633C68.5296 4.49932 68.8411 4.25482 69.2079 4.08273C69.5747 3.9016 70.0014 3.81104 70.488 3.81104C70.8718 3.81104 71.2003 3.84274 71.4736 3.90613C71.7464 3.96047 71.964 4.03745 72.1259 4.13707V5.50912C71.9725 5.4095 71.7634 5.31443 71.499 5.22386C71.2343 5.1333 70.9529 5.08799 70.6542 5.08799C70.1505 5.08799 69.7668 5.27818 69.5024 5.65855C69.2376 6.02988 69.1055 6.58688 69.1055 7.32953C69.1055 8.03592 69.2249 8.59743 69.4637 9.01401C69.7026 9.43064 70.0953 9.63893 70.6414 9.63893C70.9657 9.63893 71.2428 9.59818 71.4736 9.51666C71.7124 9.43515 71.93 9.32193 72.1259 9.17704V10.4948C71.7592 10.7755 71.2343 10.9159 70.5517 10.9159Z" fill="black"/>
<path d="M76.0806 5.224V10.7802H74.5574V5.224H72.7656V3.94702H77.8724V5.224H76.0806Z" fill="black"/>
<path d="M82.0626 7.66932H81.8451C81.188 7.66932 80.7188 7.75079 80.437 7.91382C80.1557 8.0678 80.0146 8.3395 80.0146 8.72893C80.0146 9.01873 80.0915 9.25418 80.2449 9.43532C80.4073 9.6074 80.6504 9.69342 80.9746 9.69342C81.2479 9.69342 81.474 9.64361 81.653 9.54399C81.8323 9.43532 81.9687 9.30399 82.0626 9.15006V7.66932ZM83.5858 9.1093C83.5858 9.67081 83.6114 10.2278 83.6624 10.7802H82.1778C82.1523 10.7078 82.1268 10.6217 82.1009 10.5221C82.0839 10.4225 82.0711 10.3274 82.0626 10.2368H81.9985C81.8535 10.3999 81.6657 10.5493 81.4353 10.6851C81.205 10.8119 80.868 10.8753 80.4243 10.8753C79.8357 10.8753 79.3575 10.6897 78.9907 10.3183C78.6325 9.94702 78.4531 9.41267 78.4531 8.71533C78.4531 8.01799 78.7222 7.47913 79.2594 7.09875C79.797 6.70933 80.6504 6.51459 81.8196 6.51459H82.0626V6.13422C82.0626 5.76289 81.9772 5.50479 81.8068 5.35987C81.636 5.20593 81.3673 5.12892 81.0001 5.12892C80.8038 5.12892 80.6036 5.15157 80.3988 5.19688C80.1939 5.23309 79.9976 5.2829 79.8097 5.34631C79.6308 5.40968 79.46 5.48214 79.298 5.56365C79.1442 5.64517 79.0162 5.72668 78.9138 5.8082V4.46329C79.1442 4.31836 79.4515 4.178 79.8357 4.04215C80.2194 3.9063 80.6674 3.83838 81.1795 3.83838C81.99 3.83838 82.5918 4.01045 82.984 4.35461C83.3852 4.69874 83.5858 5.28745 83.5858 6.12062V9.1093Z" fill="black"/>
<path d="M87.5006 3.94702C88.9257 3.94702 89.638 4.52666 89.638 5.68589C89.638 6.09342 89.5355 6.42853 89.3307 6.69114C89.1348 6.94474 88.8615 7.12587 88.5117 7.23455C88.9469 7.30701 89.2839 7.47454 89.5228 7.73719C89.7616 7.99075 89.8811 8.34397 89.8811 8.7968C89.8811 9.44888 89.6681 9.94248 89.2414 10.2775C88.8232 10.6127 88.2342 10.7802 87.4751 10.7802H84.8125V3.94702H87.5006ZM86.2975 7.87302V9.58471H87.3468C87.6541 9.58471 87.8972 9.5168 88.0765 9.38097C88.2559 9.23604 88.3455 9.0051 88.3455 8.68813C88.3455 8.39832 88.2601 8.19003 88.0893 8.06321C87.9188 7.93643 87.6711 7.87302 87.3468 7.87302H86.2975ZM86.2975 5.14248V6.69114H87.2703C87.5601 6.69114 87.782 6.62322 87.9358 6.4874C88.0978 6.35152 88.1789 6.16588 88.1789 5.93039C88.1789 5.40513 87.8929 5.14248 87.3213 5.14248H86.2975Z" fill="black"/>
<path d="M92.4216 7.47909V10.7802H90.8984V3.94702H92.4216V7.15303L94.5721 3.94702H96.1081L93.9576 7.15303L96.4022 10.7802H94.6746L92.4216 7.47909Z" fill="black"/>
<path d="M100.398 7.66932H100.181C99.5235 7.66932 99.0543 7.75079 98.773 7.91382C98.4912 8.0678 98.3505 8.3395 98.3505 8.72893C98.3505 9.01873 98.427 9.25418 98.5809 9.43532C98.7428 9.6074 98.9863 9.69342 99.3106 9.69342C99.5834 9.69342 99.8095 9.64361 99.9889 9.54399C100.168 9.43532 100.305 9.30399 100.398 9.15006V7.66932ZM101.921 9.1093C101.921 9.67081 101.947 10.2278 101.998 10.7802H100.513C100.488 10.7078 100.462 10.6217 100.437 10.5221C100.42 10.4225 100.407 10.3274 100.398 10.2368H100.334C100.189 10.3999 100.002 10.5493 99.7713 10.6851C99.5409 10.8119 99.2039 10.8753 98.7598 10.8753C98.1712 10.8753 97.6935 10.6897 97.3263 10.3183C96.968 9.94702 96.7891 9.41267 96.7891 8.71533C96.7891 8.01799 97.0577 7.47913 97.5953 7.09875C98.1329 6.70933 98.9863 6.51459 100.155 6.51459H100.398V6.13422C100.398 5.76289 100.313 5.50479 100.142 5.35987C99.9719 5.20593 99.7029 5.12892 99.3361 5.12892C99.1397 5.12892 98.9391 5.15157 98.7343 5.19688C98.5294 5.23309 98.3335 5.2829 98.1457 5.34631C97.9663 5.40968 97.7959 5.48214 97.6335 5.56365C97.4801 5.64517 97.3522 5.72668 97.2498 5.8082V4.46329C97.4801 4.31836 97.7874 4.178 98.1712 4.04215C98.5554 3.9063 99.0033 3.83838 99.515 3.83838C100.326 3.83838 100.927 4.01045 101.32 4.35461C101.721 4.69874 101.921 5.28745 101.921 6.12062V9.1093Z" fill="black"/>
<mask id="mask0_2001_618" style="mask-type:luminance" maskUnits="userSpaceOnUse" x="38" y="0" width="13" height="13">
<path d="M50.55 6.00355C50.55 2.68788 47.8622 0 44.5465 0C41.2308 0 38.543 2.68788 38.543 6.00355V6.74645C38.543 10.0621 41.2308 12.75 44.5465 12.75C47.8622 12.75 50.55 10.0621 50.55 6.74645V6.00355Z" fill="white"/>
</mask>
<g mask="url(#mask0_2001_618)">
<path d="M50.5539 6.00355C50.5539 2.68788 47.8661 0 44.5504 0C41.2347 0 38.5469 2.68788 38.5469 6.00355V6.74645C38.5469 10.0621 41.2347 12.75 44.5504 12.75C47.8661 12.75 50.5539 10.0621 50.5539 6.74645V6.00355Z" fill="#E6E6E6"/>
<mask id="mask1_2001_618" style="mask-type:luminance" maskUnits="userSpaceOnUse" x="38" y="0" width="11" height="12">
<path d="M48.6351 0.828857H38.1289V11.9851H48.6351V0.828857Z" fill="white"/>
</mask>
<g mask="url(#mask1_2001_618)">
<path d="M38.1289 2.83698L43.3819 0.828857L48.6349 2.83698V9.977L43.3819 11.9851L38.1289 9.977V2.83698Z" fill="#FF7751"/>
<path d="M38.1289 2.83691L43.3819 4.84502V11.985L38.1289 9.97689V2.83691Z" fill="#E13100"/>
<path d="M48.6358 2.83691L43.3828 4.84502V11.985L48.6358 9.97689V2.83691Z" fill="#FC4714"/>
<path d="M48.0579 8.69747C46.9304 9.85759 45.1212 10.5212 43.9609 10.2813V9.65334C45.0978 9.89962 46.9219 9.29825 48.0579 8.06996V8.69747ZM45.7302 6.86508L45.3579 7.00954V8.69292L44.4263 9.05277V7.36977L44.0536 7.51295L44.8921 5.08416L45.7302 6.86508ZM47.9653 6.0014L47.5926 6.14581V7.82881L46.6614 8.18866V6.50523L46.2891 6.64927L47.1272 4.22046L47.9653 6.0014Z" fill="#DEE1E2"/>
</g>
</g>
</g>
<defs>
<clipPath id="clip0_2001_618">
<rect width="102" height="12.75" fill="white"/>
</clipPath>
</defs>
</svg>
